<svg width="20" height="20" viewBox="0 0 20 20" fill="none" xmlns="http://www.w3.org/2000/svg">
<path d="M15.0156 19.9844V18.0156H18.0156V15.0156H19.9844V18.4844C19.9844 18.8906 19.8281 19.25 19.5156 19.5625C19.2344 19.8438 18.8906 19.9844 18.4844 19.9844H15.0156ZM4.98438 19.9844H1.51562C1.10938 19.9844 0.75 19.8438 0.4375 19.5625C0.15625 19.25 0.015625 18.8906 0.015625 18.4844V15.0156H1.98438V18.0156H4.98438V19.9844ZM15.0156 0.015625H18.4844C18.8906 0.015625 19.2344 0.171875 19.5156 0.484375C19.8281 0.765625 19.9844 1.10937 19.9844 1.51562V4.98438H18.0156V1.98438H15.0156V0.015625ZM4.98438 0.015625V1.98438H1.98438V4.98438H0.015625V1.51562C0.015625 1.10937 0.15625 0.765625 0.4375 0.484375C0.75 0.171875 1.10938 0.015625 1.51562 0.015625H4.98438ZM10.9844 15.25L15.0156 12.9531V8.35938L10.9844 10.6562V15.25ZM10 8.92188L13.9844 6.625L10 4.28125L6.01562 6.625L10 8.92188ZM4.98438 12.9531L9.01562 15.25V10.6562L4.98438 8.35938V12.9531ZM16.2344 5.59375C16.7344 5.90625 16.9844 6.34375 16.9844 6.90625V13.2344C16.9844 13.7969 16.7344 14.2344 16.2344 14.5469L10.75 17.7344C10.25 18.0469 9.75 18.0469 9.25 17.7344L3.76562 14.5469C3.26562 14.2344 3.01562 13.7969 3.01562 13.2344V6.90625C3.01562 6.34375 3.26562 5.90625 3.76562 5.59375L9.25 2.40625C9.5 2.28125 9.75 2.21875 10 2.21875C10.25 2.21875 10.5 2.28125 10.75 2.40625L16.2344 5.59375Z" fill="white"/>
</svg>
