<svg width="48" height="48" viewBox="0 0 48 48" fill="none" xmlns="http://www.w3.org/2000/svg">
<circle cx="24" cy="24" r="24" fill="#FEEA10"/>
<path d="M14.5625 19.3125C17.1875 17.9792 20.3333 17.3125 24 17.3125C27.6667 17.3125 30.7917 17.9792 33.375 19.3125C36 20.6042 37.3125 22.1667 37.3125 24C37.3125 25.375 36.5625 26.625 35.0625 27.75C33.6042 28.8333 31.6875 29.625 29.3125 30.125V27.375C30.9375 26.9583 32.2292 26.4375 33.1875 25.8125C34.1875 25.1458 34.6875 24.5417 34.6875 24C34.6875 23.5 34.2708 22.9583 33.4375 22.375C32.6042 21.75 31.3333 21.2083 29.625 20.75C27.9167 20.25 26.0417 20 24 20C21.9583 20 20.0833 20.25 18.375 20.75C16.6667 21.2083 15.3958 21.75 14.5625 22.375C13.7292 22.9583 13.3125 23.5 13.3125 24C13.3125 24.625 13.9375 25.3125 15.1875 26.0625C16.4375 26.7708 18.0417 27.2917 20 27.625V24L25.3125 29.3125L20 34.6875V30.375C17.25 29.9167 15 29.125 13.25 28C11.5417 26.8333 10.6875 25.5 10.6875 24C10.6875 22.1667 11.9792 20.6042 14.5625 19.3125Z" fill="black"/>
</svg>
