<svg width="48" height="48" viewBox="0 0 48 48" fill="none" xmlns="http://www.w3.org/2000/svg">
<circle cx="24" cy="24" r="24" fill="#FEEA10"/>
<path d="M17.3125 20H24V21.3125H17.3125V20ZM16.4375 24.9375C17.6042 26.1042 19.0208 26.6875 20.6875 26.6875C22.3542 26.6875 23.7708 26.1042 24.9375 24.9375C26.1042 23.7708 26.6875 22.3542 26.6875 20.6875C26.6875 19.0208 26.1042 17.6042 24.9375 16.4375C23.7708 15.2708 22.3542 14.6875 20.6875 14.6875C19.0208 14.6875 17.6042 15.2708 16.4375 16.4375C15.2708 17.6042 14.6875 19.0208 14.6875 20.6875C14.6875 22.3542 15.2708 23.7708 16.4375 24.9375ZM28.6875 26.6875L35.3125 33.3125L33.3125 35.3125L26.6875 28.6875V27.625L26.3125 27.25C24.7292 28.625 22.8542 29.3125 20.6875 29.3125C18.2708 29.3125 16.2083 28.4792 14.5 26.8125C12.8333 25.1458 12 23.1042 12 20.6875C12 18.2708 12.8333 16.2292 14.5 14.5625C16.2083 12.8542 18.2708 12 20.6875 12C23.1042 12 25.1458 12.8542 26.8125 14.5625C28.4792 16.2292 29.3125 18.2708 29.3125 20.6875C29.3125 21.5625 29.1042 22.5625 28.6875 23.6875C28.2708 24.7708 27.7917 25.6458 27.25 26.3125L27.625 26.6875H28.6875Z" fill="black"/>
</svg>
