<svg width="412" height="200" viewBox="0 0 412 200" fill="none" xmlns="http://www.w3.org/2000/svg">
<rect width="412" height="200" fill="#585858"/>
<mask id="mask0_55_852" style="mask-type:alpha" maskUnits="userSpaceOnUse" x="0" y="0" width="412" height="200">
<path d="M0.5 0.5H411.5V199.5H0.5V0.5Z" fill="#EDEDED" stroke="black"/>
</mask>
<g mask="url(#mask0_55_852)">
<path d="M327.008 104C272.04 103.24 216.23 95.5557 163.708 71.3207C141.029 60.8498 120.122 47.6768 104.104 27.9172C81.341 -0.117722 81.2567 -33.4725 104.104 -61.3386C125.686 -87.6002 154.687 -102.631 185.796 -113.946C232.67 -131.004 281.23 -137.084 331.054 -136.999C379.614 -136.915 426.994 -130.497 472.688 -113.946C498.991 -104.404 523.608 -91.8224 544.094 -72.2317C580.262 -37.6102 579.924 4.94882 543.336 39.1481C521.332 59.7521 494.86 72.5029 466.786 82.2982C422.273 97.7512 376.158 103.493 327.008 104ZM436.099 54.9388C458.946 47.8457 484.153 37.3748 503.881 17.193C529.172 -8.64641 527.571 -39.5524 499.75 -62.7741C485.249 -74.9338 468.388 -82.787 450.262 -87.6847C371.69 -109.133 292.864 -108.795 214.038 -89.458C193.805 -84.4759 174.836 -76.3694 158.565 -62.943C132.43 -41.3257 128.468 -13.1219 149.038 11.6198C169.019 35.6859 196.502 47.2546 225.672 55.5299C221.626 53.0811 217.326 51.3078 213.026 49.4501C198.104 42.7791 184.025 34.6726 173.487 21.8374C160.251 5.62437 160.251 -13.0374 173.487 -29.166C184.278 -42.2546 198.357 -50.9521 213.869 -57.1165C277.436 -82.4492 342.604 -83.8848 408.615 -68.9384C434.413 -63.1119 459.114 -53.9076 478.842 -35.3303C500.087 -15.3174 500.34 9.50873 477.83 28.1705C464.426 39.317 448.408 47.2546 436.183 55.0233L436.099 54.9388ZM417.805 51.4767C435.087 46.579 448.408 39.6547 458.018 26.8195C468.81 12.3798 466.955 -3.2421 451.948 -13.1219C442.169 -19.5395 431.546 -25.2816 420.587 -29.166C375.315 -45.2945 328.694 -46.6456 281.651 -40.0591C255.179 -36.428 229.55 -29.4193 207.041 -14.0507C191.023 -3.07321 188.662 12.6331 200.633 27.8328C210.329 40.0769 223.396 46.9168 239.245 51.2234C237.981 49.619 237.644 48.859 237.053 48.3523C218.759 31.6327 219.855 17.2775 240.51 3.51331C242.702 2.07779 245.062 0.726715 247.423 -0.45549C270.691 -12.0241 295.646 -15.824 321.19 -16.584C352.805 -17.4284 383.914 -14.3885 412.409 0.473373C438.375 14.0686 440.399 30.2816 417.72 51.3922L417.805 51.4767ZM266.729 26.6506C261.081 29.3527 255.011 36.0237 253.999 41.6814C253.324 45.7346 260.322 51.8145 264.79 55.9521C267.656 58.5699 272.125 59.7521 276.003 60.9342C296.826 67.4363 318.24 69.1252 339.822 67.943C358.116 66.9297 376.579 65.4097 392.85 56.0366C398.077 52.9967 404.316 46.0724 404.063 41.1747C403.81 36.1081 397.74 29.5216 391.923 26.5661C337.461 -1.80658 286.204 17.3619 266.729 26.735V26.6506Z" fill="white" fill-opacity="0.1"/>
<path d="M229 117.174C279.064 126.828 378.682 127.002 429 117C424.934 127.176 421.63 136.135 417.649 144.745C416.717 146.746 413.583 148.138 411.211 148.92C373.939 160.836 285.756 161.097 248.483 149.268C244.671 148.051 240.944 143.876 238.826 140.136C235.099 133.352 232.643 125.872 229 117.174Z" fill="white" fill-opacity="0.1"/>
<path d="M259 170C303.991 180.821 352.082 180.74 399 170.244C397.241 191.155 391.46 198.722 371.268 203.197C351.831 207.509 299.048 207.021 279.862 200.512C270.478 197.338 264.111 192.538 262.77 182.449C262.268 178.625 260.508 174.882 259 170Z" fill="white" fill-opacity="0.1"/>
</g>
<path d="M220.304 121V112.74H217.056V111.2H225.372V112.74H222.124V121H220.304ZM226.492 121V113.524H228.158V115.582L227.962 114.98C228.186 114.476 228.536 114.093 229.012 113.832C229.497 113.571 230.099 113.44 230.818 113.44V115.106C230.743 115.087 230.673 115.078 230.608 115.078C230.543 115.069 230.477 115.064 230.412 115.064C229.749 115.064 229.222 115.26 228.83 115.652C228.438 116.035 228.242 116.609 228.242 117.374V121H226.492ZM235.694 121.098C234.929 121.098 234.248 120.935 233.65 120.608C233.053 120.272 232.582 119.815 232.236 119.236C231.891 118.657 231.718 117.999 231.718 117.262C231.718 116.515 231.891 115.857 232.236 115.288C232.582 114.709 233.053 114.257 233.65 113.93C234.248 113.603 234.929 113.44 235.694 113.44C236.469 113.44 237.155 113.603 237.752 113.93C238.359 114.257 238.83 114.705 239.166 115.274C239.512 115.843 239.684 116.506 239.684 117.262C239.684 117.999 239.512 118.657 239.166 119.236C238.83 119.815 238.359 120.272 237.752 120.608C237.155 120.935 236.469 121.098 235.694 121.098ZM235.694 119.6C236.124 119.6 236.506 119.507 236.842 119.32C237.178 119.133 237.44 118.863 237.626 118.508C237.822 118.153 237.92 117.738 237.92 117.262C237.92 116.777 237.822 116.361 237.626 116.016C237.44 115.661 237.178 115.391 236.842 115.204C236.506 115.017 236.128 114.924 235.708 114.924C235.279 114.924 234.896 115.017 234.56 115.204C234.234 115.391 233.972 115.661 233.776 116.016C233.58 116.361 233.482 116.777 233.482 117.262C233.482 117.738 233.58 118.153 233.776 118.508C233.972 118.863 234.234 119.133 234.56 119.32C234.896 119.507 235.274 119.6 235.694 119.6ZM244.888 121.098C244.104 121.098 243.404 120.935 242.788 120.608C242.181 120.272 241.705 119.815 241.36 119.236C241.014 118.657 240.842 117.999 240.842 117.262C240.842 116.515 241.014 115.857 241.36 115.288C241.705 114.709 242.181 114.257 242.788 113.93C243.404 113.603 244.104 113.44 244.888 113.44C245.616 113.44 246.255 113.589 246.806 113.888C247.366 114.177 247.79 114.607 248.08 115.176L246.736 115.96C246.512 115.605 246.236 115.344 245.91 115.176C245.592 115.008 245.247 114.924 244.874 114.924C244.444 114.924 244.057 115.017 243.712 115.204C243.366 115.391 243.096 115.661 242.9 116.016C242.704 116.361 242.606 116.777 242.606 117.262C242.606 117.747 242.704 118.167 242.9 118.522C243.096 118.867 243.366 119.133 243.712 119.32C244.057 119.507 244.444 119.6 244.874 119.6C245.247 119.6 245.592 119.516 245.91 119.348C246.236 119.18 246.512 118.919 246.736 118.564L248.08 119.348C247.79 119.908 247.366 120.342 246.806 120.65C246.255 120.949 245.616 121.098 244.888 121.098ZM254.299 121V119.488L254.201 119.166V116.52C254.201 116.007 254.047 115.61 253.739 115.33C253.431 115.041 252.964 114.896 252.339 114.896C251.919 114.896 251.503 114.961 251.093 115.092C250.691 115.223 250.351 115.405 250.071 115.638L249.385 114.364C249.786 114.056 250.262 113.827 250.813 113.678C251.373 113.519 251.951 113.44 252.549 113.44C253.631 113.44 254.467 113.701 255.055 114.224C255.652 114.737 255.951 115.535 255.951 116.618V121H254.299ZM251.947 121.098C251.387 121.098 250.897 121.005 250.477 120.818C250.057 120.622 249.73 120.356 249.497 120.02C249.273 119.675 249.161 119.287 249.161 118.858C249.161 118.438 249.259 118.06 249.455 117.724C249.66 117.388 249.991 117.122 250.449 116.926C250.906 116.73 251.513 116.632 252.269 116.632H254.439V117.794H252.395C251.797 117.794 251.396 117.892 251.191 118.088C250.985 118.275 250.883 118.508 250.883 118.788C250.883 119.105 251.009 119.357 251.261 119.544C251.513 119.731 251.863 119.824 252.311 119.824C252.74 119.824 253.123 119.726 253.459 119.53C253.804 119.334 254.051 119.045 254.201 118.662L254.495 119.712C254.327 120.151 254.023 120.491 253.585 120.734C253.155 120.977 252.609 121.098 251.947 121.098ZM265.43 121.098C264.711 121.098 264.062 120.939 263.484 120.622C262.914 120.295 262.466 119.847 262.14 119.278C261.813 118.709 261.65 118.037 261.65 117.262C261.65 116.487 261.813 115.815 262.14 115.246C262.466 114.677 262.914 114.233 263.484 113.916C264.062 113.599 264.711 113.44 265.43 113.44C266.055 113.44 266.615 113.58 267.11 113.86C267.604 114.131 267.996 114.546 268.286 115.106C268.575 115.666 268.72 116.385 268.72 117.262C268.72 118.13 268.58 118.849 268.3 119.418C268.02 119.978 267.632 120.398 267.138 120.678C266.643 120.958 266.074 121.098 265.43 121.098ZM265.64 119.6C266.06 119.6 266.433 119.507 266.76 119.32C267.096 119.133 267.362 118.863 267.558 118.508C267.763 118.153 267.866 117.738 267.866 117.262C267.866 116.777 267.763 116.361 267.558 116.016C267.362 115.661 267.096 115.391 266.76 115.204C266.433 115.017 266.06 114.924 265.64 114.924C265.22 114.924 264.842 115.017 264.506 115.204C264.179 115.391 263.913 115.661 263.708 116.016C263.512 116.361 263.414 116.777 263.414 117.262C263.414 117.738 263.512 118.153 263.708 118.508C263.913 118.863 264.179 119.133 264.506 119.32C264.842 119.507 265.22 119.6 265.64 119.6ZM267.908 121V119.236L267.978 117.248L267.838 115.26V110.612H269.574V121H267.908ZM275.491 121.098C274.66 121.098 273.932 120.935 273.307 120.608C272.691 120.272 272.21 119.815 271.865 119.236C271.529 118.657 271.361 117.999 271.361 117.262C271.361 116.515 271.524 115.857 271.851 115.288C272.187 114.709 272.644 114.257 273.223 113.93C273.811 113.603 274.478 113.44 275.225 113.44C275.953 113.44 276.602 113.599 277.171 113.916C277.74 114.233 278.188 114.681 278.515 115.26C278.842 115.839 279.005 116.52 279.005 117.304C279.005 117.379 279 117.463 278.991 117.556C278.991 117.649 278.986 117.738 278.977 117.822H272.747V116.66H278.053L277.367 117.024C277.376 116.595 277.288 116.217 277.101 115.89C276.914 115.563 276.658 115.307 276.331 115.12C276.014 114.933 275.645 114.84 275.225 114.84C274.796 114.84 274.418 114.933 274.091 115.12C273.774 115.307 273.522 115.568 273.335 115.904C273.158 116.231 273.069 116.618 273.069 117.066V117.346C273.069 117.794 273.172 118.191 273.377 118.536C273.582 118.881 273.872 119.147 274.245 119.334C274.618 119.521 275.048 119.614 275.533 119.614C275.953 119.614 276.331 119.549 276.667 119.418C277.003 119.287 277.302 119.082 277.563 118.802L278.501 119.88C278.165 120.272 277.74 120.575 277.227 120.79C276.723 120.995 276.144 121.098 275.491 121.098ZM288.185 121.098C287.401 121.098 286.701 120.935 286.085 120.608C285.478 120.272 285.002 119.815 284.657 119.236C284.312 118.657 284.139 117.999 284.139 117.262C284.139 116.515 284.312 115.857 284.657 115.288C285.002 114.709 285.478 114.257 286.085 113.93C286.701 113.603 287.401 113.44 288.185 113.44C288.913 113.44 289.552 113.589 290.103 113.888C290.663 114.177 291.088 114.607 291.377 115.176L290.033 115.96C289.809 115.605 289.534 115.344 289.207 115.176C288.89 115.008 288.544 114.924 288.171 114.924C287.742 114.924 287.354 115.017 287.009 115.204C286.664 115.391 286.393 115.661 286.197 116.016C286.001 116.361 285.903 116.777 285.903 117.262C285.903 117.747 286.001 118.167 286.197 118.522C286.393 118.867 286.664 119.133 287.009 119.32C287.354 119.507 287.742 119.6 288.171 119.6C288.544 119.6 288.89 119.516 289.207 119.348C289.534 119.18 289.809 118.919 290.033 118.564L291.377 119.348C291.088 119.908 290.663 120.342 290.103 120.65C289.552 120.949 288.913 121.098 288.185 121.098ZM296.24 121.098C295.475 121.098 294.794 120.935 294.196 120.608C293.599 120.272 293.128 119.815 292.782 119.236C292.437 118.657 292.264 117.999 292.264 117.262C292.264 116.515 292.437 115.857 292.782 115.288C293.128 114.709 293.599 114.257 294.196 113.93C294.794 113.603 295.475 113.44 296.24 113.44C297.015 113.44 297.701 113.603 298.298 113.93C298.905 114.257 299.376 114.705 299.712 115.274C300.058 115.843 300.23 116.506 300.23 117.262C300.23 117.999 300.058 118.657 299.712 119.236C299.376 119.815 298.905 120.272 298.298 120.608C297.701 120.935 297.015 121.098 296.24 121.098ZM296.24 119.6C296.67 119.6 297.052 119.507 297.388 119.32C297.724 119.133 297.986 118.863 298.172 118.508C298.368 118.153 298.466 117.738 298.466 117.262C298.466 116.777 298.368 116.361 298.172 116.016C297.986 115.661 297.724 115.391 297.388 115.204C297.052 115.017 296.674 114.924 296.254 114.924C295.825 114.924 295.442 115.017 295.106 115.204C294.78 115.391 294.518 115.661 294.322 116.016C294.126 116.361 294.028 116.777 294.028 117.262C294.028 117.738 294.126 118.153 294.322 118.508C294.518 118.863 294.78 119.133 295.106 119.32C295.442 119.507 295.82 119.6 296.24 119.6ZM302.004 121V110.612H303.754V121H302.004ZM309.665 121.098C308.834 121.098 308.106 120.935 307.481 120.608C306.865 120.272 306.384 119.815 306.039 119.236C305.703 118.657 305.535 117.999 305.535 117.262C305.535 116.515 305.698 115.857 306.025 115.288C306.361 114.709 306.818 114.257 307.397 113.93C307.985 113.603 308.652 113.44 309.399 113.44C310.127 113.44 310.775 113.599 311.345 113.916C311.914 114.233 312.362 114.681 312.689 115.26C313.015 115.839 313.179 116.52 313.179 117.304C313.179 117.379 313.174 117.463 313.165 117.556C313.165 117.649 313.16 117.738 313.151 117.822H306.921V116.66H312.227L311.541 117.024C311.55 116.595 311.461 116.217 311.275 115.89C311.088 115.563 310.831 115.307 310.505 115.12C310.187 114.933 309.819 114.84 309.399 114.84C308.969 114.84 308.591 114.933 308.265 115.12C307.947 115.307 307.695 115.568 307.509 115.904C307.331 116.231 307.243 116.618 307.243 117.066V117.346C307.243 117.794 307.345 118.191 307.551 118.536C307.756 118.881 308.045 119.147 308.419 119.334C308.792 119.521 309.221 119.614 309.707 119.614C310.127 119.614 310.505 119.549 310.841 119.418C311.177 119.287 311.475 119.082 311.737 118.802L312.675 119.88C312.339 120.272 311.914 120.575 311.401 120.79C310.897 120.995 310.318 121.098 309.665 121.098ZM318.39 121.098C317.606 121.098 316.906 120.935 316.29 120.608C315.683 120.272 315.207 119.815 314.862 119.236C314.516 118.657 314.344 117.999 314.344 117.262C314.344 116.515 314.516 115.857 314.862 115.288C315.207 114.709 315.683 114.257 316.29 113.93C316.906 113.603 317.606 113.44 318.39 113.44C319.118 113.44 319.757 113.589 320.308 113.888C320.868 114.177 321.292 114.607 321.582 115.176L320.238 115.96C320.014 115.605 319.738 115.344 319.412 115.176C319.094 115.008 318.749 114.924 318.376 114.924C317.946 114.924 317.559 115.017 317.214 115.204C316.868 115.391 316.598 115.661 316.402 116.016C316.206 116.361 316.108 116.777 316.108 117.262C316.108 117.747 316.206 118.167 316.402 118.522C316.598 118.867 316.868 119.133 317.214 119.32C317.559 119.507 317.946 119.6 318.376 119.6C318.749 119.6 319.094 119.516 319.412 119.348C319.738 119.18 320.014 118.919 320.238 118.564L321.582 119.348C321.292 119.908 320.868 120.342 320.308 120.65C319.757 120.949 319.118 121.098 318.39 121.098ZM317.662 124.192C317.41 124.192 317.176 124.164 316.962 124.108C316.747 124.061 316.551 123.991 316.374 123.898L316.696 123.072C316.845 123.147 316.994 123.203 317.144 123.24C317.302 123.277 317.47 123.296 317.648 123.296C317.918 123.296 318.11 123.249 318.222 123.156C318.334 123.063 318.39 122.941 318.39 122.792C318.39 122.652 318.329 122.54 318.208 122.456C318.096 122.372 317.909 122.33 317.648 122.33H317.214L317.592 120.902H318.544L318.348 121.686C318.758 121.733 319.062 121.863 319.258 122.078C319.463 122.302 319.566 122.563 319.566 122.862C319.566 123.273 319.393 123.595 319.048 123.828C318.702 124.071 318.24 124.192 317.662 124.192ZM327.8 121V119.488L327.702 119.166V116.52C327.702 116.007 327.548 115.61 327.24 115.33C326.932 115.041 326.466 114.896 325.84 114.896C325.42 114.896 325.005 114.961 324.594 115.092C324.193 115.223 323.852 115.405 323.572 115.638L322.886 114.364C323.288 114.056 323.764 113.827 324.314 113.678C324.874 113.519 325.453 113.44 326.05 113.44C327.133 113.44 327.968 113.701 328.556 114.224C329.154 114.737 329.452 115.535 329.452 116.618V121H327.8ZM325.448 121.098C324.888 121.098 324.398 121.005 323.978 120.818C323.558 120.622 323.232 120.356 322.998 120.02C322.774 119.675 322.662 119.287 322.662 118.858C322.662 118.438 322.76 118.06 322.956 117.724C323.162 117.388 323.493 117.122 323.95 116.926C324.408 116.73 325.014 116.632 325.77 116.632H327.94V117.794H325.896C325.299 117.794 324.898 117.892 324.692 118.088C324.487 118.275 324.384 118.508 324.384 118.788C324.384 119.105 324.51 119.357 324.762 119.544C325.014 119.731 325.364 119.824 325.812 119.824C326.242 119.824 326.624 119.726 326.96 119.53C327.306 119.334 327.553 119.045 327.702 118.662L327.996 119.712C327.828 120.151 327.525 120.491 327.086 120.734C326.657 120.977 326.111 121.098 325.448 121.098ZM327.212 112.502C326.988 112.502 326.783 112.46 326.596 112.376C326.419 112.283 326.256 112.175 326.106 112.054C325.966 111.923 325.831 111.811 325.7 111.718C325.57 111.625 325.439 111.578 325.308 111.578C325.112 111.578 324.954 111.653 324.832 111.802C324.711 111.951 324.641 112.157 324.622 112.418H323.684C323.703 111.839 323.843 111.382 324.104 111.046C324.375 110.71 324.739 110.542 325.196 110.542C325.42 110.542 325.626 110.589 325.812 110.682C325.999 110.775 326.162 110.883 326.302 111.004C326.452 111.125 326.592 111.233 326.722 111.326C326.853 111.419 326.979 111.466 327.1 111.466C327.296 111.466 327.455 111.396 327.576 111.256C327.707 111.116 327.777 110.92 327.786 110.668H328.724C328.715 111.209 328.575 111.653 328.304 111.998C328.034 112.334 327.67 112.502 327.212 112.502ZM335.172 121.098C334.407 121.098 333.725 120.935 333.128 120.608C332.531 120.272 332.059 119.815 331.714 119.236C331.369 118.657 331.196 117.999 331.196 117.262C331.196 116.515 331.369 115.857 331.714 115.288C332.059 114.709 332.531 114.257 333.128 113.93C333.725 113.603 334.407 113.44 335.172 113.44C335.947 113.44 336.633 113.603 337.23 113.93C337.837 114.257 338.308 114.705 338.644 115.274C338.989 115.843 339.162 116.506 339.162 117.262C339.162 117.999 338.989 118.657 338.644 119.236C338.308 119.815 337.837 120.272 337.23 120.608C336.633 120.935 335.947 121.098 335.172 121.098ZM335.172 119.6C335.601 119.6 335.984 119.507 336.32 119.32C336.656 119.133 336.917 118.863 337.104 118.508C337.3 118.153 337.398 117.738 337.398 117.262C337.398 116.777 337.3 116.361 337.104 116.016C336.917 115.661 336.656 115.391 336.32 115.204C335.984 115.017 335.606 114.924 335.186 114.924C334.757 114.924 334.374 115.017 334.038 115.204C333.711 115.391 333.45 115.661 333.254 116.016C333.058 116.361 332.96 116.777 332.96 117.262C332.96 117.738 333.058 118.153 333.254 118.508C333.45 118.863 333.711 119.133 334.038 119.32C334.374 119.507 334.752 119.6 335.172 119.6ZM348.335 121.098C347.551 121.098 346.851 120.935 346.235 120.608C345.628 120.272 345.152 119.815 344.807 119.236C344.461 118.657 344.289 117.999 344.289 117.262C344.289 116.515 344.461 115.857 344.807 115.288C345.152 114.709 345.628 114.257 346.235 113.93C346.851 113.603 347.551 113.44 348.335 113.44C349.063 113.44 349.702 113.589 350.253 113.888C350.813 114.177 351.237 114.607 351.527 115.176L350.183 115.96C349.959 115.605 349.683 115.344 349.357 115.176C349.039 115.008 348.694 114.924 348.321 114.924C347.891 114.924 347.504 115.017 347.159 115.204C346.813 115.391 346.543 115.661 346.347 116.016C346.151 116.361 346.053 116.777 346.053 117.262C346.053 117.747 346.151 118.167 346.347 118.522C346.543 118.867 346.813 119.133 347.159 119.32C347.504 119.507 347.891 119.6 348.321 119.6C348.694 119.6 349.039 119.516 349.357 119.348C349.683 119.18 349.959 118.919 350.183 118.564L351.527 119.348C351.237 119.908 350.813 120.342 350.253 120.65C349.702 120.949 349.063 121.098 348.335 121.098ZM356.39 121.098C355.625 121.098 354.943 120.935 354.346 120.608C353.749 120.272 353.277 119.815 352.932 119.236C352.587 118.657 352.414 117.999 352.414 117.262C352.414 116.515 352.587 115.857 352.932 115.288C353.277 114.709 353.749 114.257 354.346 113.93C354.943 113.603 355.625 113.44 356.39 113.44C357.165 113.44 357.851 113.603 358.448 113.93C359.055 114.257 359.526 114.705 359.862 115.274C360.207 115.843 360.38 116.506 360.38 117.262C360.38 117.999 360.207 118.657 359.862 119.236C359.526 119.815 359.055 120.272 358.448 120.608C357.851 120.935 357.165 121.098 356.39 121.098ZM356.39 119.6C356.819 119.6 357.202 119.507 357.538 119.32C357.874 119.133 358.135 118.863 358.322 118.508C358.518 118.153 358.616 117.738 358.616 117.262C358.616 116.777 358.518 116.361 358.322 116.016C358.135 115.661 357.874 115.391 357.538 115.204C357.202 115.017 356.824 114.924 356.404 114.924C355.975 114.924 355.592 115.017 355.256 115.204C354.929 115.391 354.668 115.661 354.472 116.016C354.276 116.361 354.178 116.777 354.178 117.262C354.178 117.738 354.276 118.153 354.472 118.508C354.668 118.863 354.929 119.133 355.256 119.32C355.592 119.507 355.97 119.6 356.39 119.6ZM371.589 113.44C372.187 113.44 372.714 113.557 373.171 113.79C373.638 114.023 374.002 114.383 374.263 114.868C374.525 115.344 374.655 115.96 374.655 116.716V121H372.905V116.94C372.905 116.277 372.761 115.783 372.471 115.456C372.182 115.129 371.767 114.966 371.225 114.966C370.843 114.966 370.502 115.05 370.203 115.218C369.914 115.386 369.685 115.633 369.517 115.96C369.359 116.287 369.279 116.702 369.279 117.206V121H367.529V116.94C367.529 116.277 367.385 115.783 367.095 115.456C366.806 115.129 366.391 114.966 365.849 114.966C365.467 114.966 365.126 115.05 364.827 115.218C364.538 115.386 364.309 115.633 364.141 115.96C363.983 116.287 363.903 116.702 363.903 117.206V121H362.153V113.524H363.819V115.512L363.525 114.924C363.777 114.439 364.141 114.07 364.617 113.818C365.103 113.566 365.653 113.44 366.269 113.44C366.969 113.44 367.576 113.613 368.089 113.958C368.612 114.303 368.957 114.826 369.125 115.526L368.439 115.288C368.682 114.728 369.083 114.28 369.643 113.944C370.203 113.608 370.852 113.44 371.589 113.44ZM227.584 133.44C228.181 133.44 228.709 133.557 229.166 133.79C229.633 134.023 229.997 134.383 230.258 134.868C230.519 135.344 230.65 135.96 230.65 136.716V141H228.9V136.94C228.9 136.277 228.755 135.783 228.466 135.456C228.177 135.129 227.761 134.966 227.22 134.966C226.837 134.966 226.497 135.05 226.198 135.218C225.909 135.386 225.68 135.633 225.512 135.96C225.353 136.287 225.274 136.702 225.274 137.206V141H223.524V136.94C223.524 136.277 223.379 135.783 223.09 135.456C222.801 135.129 222.385 134.966 221.844 134.966C221.461 134.966 221.121 135.05 220.822 135.218C220.533 135.386 220.304 135.633 220.136 135.96C219.977 136.287 219.898 136.702 219.898 137.206V141H218.148V133.524H219.814V135.512L219.52 134.924C219.772 134.439 220.136 134.07 220.612 133.818C221.097 133.566 221.648 133.44 222.264 133.44C222.964 133.44 223.571 133.613 224.084 133.958C224.607 134.303 224.952 134.826 225.12 135.526L224.434 135.288C224.677 134.728 225.078 134.28 225.638 133.944C226.198 133.608 226.847 133.44 227.584 133.44ZM236.15 141.098C235.516 141.098 234.956 140.981 234.47 140.748C233.985 140.505 233.607 140.141 233.336 139.656C233.066 139.161 232.93 138.541 232.93 137.794V133.524H234.68V137.556C234.68 138.228 234.83 138.732 235.128 139.068C235.436 139.395 235.87 139.558 236.43 139.558C236.841 139.558 237.196 139.474 237.494 139.306C237.802 139.138 238.04 138.886 238.208 138.55C238.386 138.214 238.474 137.799 238.474 137.304V133.524H240.224V141H238.558V138.984L238.852 139.6C238.6 140.085 238.232 140.459 237.746 140.72C237.261 140.972 236.729 141.098 236.15 141.098ZM242.616 141V133.524H244.366V141H242.616ZM243.498 132.292C243.171 132.292 242.9 132.189 242.686 131.984C242.48 131.779 242.378 131.531 242.378 131.242C242.378 130.943 242.48 130.696 242.686 130.5C242.9 130.295 243.171 130.192 243.498 130.192C243.824 130.192 244.09 130.29 244.296 130.486C244.51 130.673 244.618 130.911 244.618 131.2C244.618 131.508 244.515 131.769 244.31 131.984C244.104 132.189 243.834 132.292 243.498 132.292ZM249.576 141.098C248.755 141.098 248.12 140.888 247.672 140.468C247.224 140.039 247 139.409 247 138.578V131.872H248.75V138.536C248.75 138.891 248.839 139.166 249.016 139.362C249.203 139.558 249.46 139.656 249.786 139.656C250.178 139.656 250.505 139.553 250.766 139.348L251.256 140.594C251.051 140.762 250.799 140.888 250.5 140.972C250.202 141.056 249.894 141.098 249.576 141.098ZM245.768 134.98V133.58H250.752V134.98H245.768ZM257.402 141V139.488L257.304 139.166V136.52C257.304 136.007 257.15 135.61 256.842 135.33C256.534 135.041 256.067 134.896 255.442 134.896C255.022 134.896 254.607 134.961 254.196 135.092C253.795 135.223 253.454 135.405 253.174 135.638L252.488 134.364C252.889 134.056 253.365 133.827 253.916 133.678C254.476 133.519 255.055 133.44 255.652 133.44C256.735 133.44 257.57 133.701 258.158 134.224C258.755 134.737 259.054 135.535 259.054 136.618V141H257.402ZM255.05 141.098C254.49 141.098 254 141.005 253.58 140.818C253.16 140.622 252.833 140.356 252.6 140.02C252.376 139.675 252.264 139.287 252.264 138.858C252.264 138.438 252.362 138.06 252.558 137.724C252.763 137.388 253.095 137.122 253.552 136.926C254.009 136.73 254.616 136.632 255.372 136.632H257.542V137.794H255.498C254.901 137.794 254.499 137.892 254.294 138.088C254.089 138.275 253.986 138.508 253.986 138.788C253.986 139.105 254.112 139.357 254.364 139.544C254.616 139.731 254.966 139.824 255.414 139.824C255.843 139.824 256.226 139.726 256.562 139.53C256.907 139.334 257.155 139.045 257.304 138.662L257.598 139.712C257.43 140.151 257.127 140.491 256.688 140.734C256.259 140.977 255.713 141.098 255.05 141.098ZM263.71 141.098C263.085 141.098 262.483 141.019 261.904 140.86C261.335 140.692 260.882 140.491 260.546 140.258L261.218 138.928C261.554 139.143 261.955 139.32 262.422 139.46C262.889 139.6 263.355 139.67 263.822 139.67C264.373 139.67 264.769 139.595 265.012 139.446C265.264 139.297 265.39 139.096 265.39 138.844C265.39 138.639 265.306 138.485 265.138 138.382C264.97 138.27 264.751 138.186 264.48 138.13C264.209 138.074 263.906 138.023 263.57 137.976C263.243 137.929 262.912 137.869 262.576 137.794C262.249 137.71 261.951 137.593 261.68 137.444C261.409 137.285 261.19 137.075 261.022 136.814C260.854 136.553 260.77 136.207 260.77 135.778C260.77 135.302 260.905 134.891 261.176 134.546C261.447 134.191 261.825 133.921 262.31 133.734C262.805 133.538 263.388 133.44 264.06 133.44C264.564 133.44 265.073 133.496 265.586 133.608C266.099 133.72 266.524 133.879 266.86 134.084L266.188 135.414C265.833 135.199 265.474 135.055 265.11 134.98C264.755 134.896 264.401 134.854 264.046 134.854C263.514 134.854 263.117 134.933 262.856 135.092C262.604 135.251 262.478 135.451 262.478 135.694C262.478 135.918 262.562 136.086 262.73 136.198C262.898 136.31 263.117 136.399 263.388 136.464C263.659 136.529 263.957 136.585 264.284 136.632C264.62 136.669 264.951 136.73 265.278 136.814C265.605 136.898 265.903 137.015 266.174 137.164C266.454 137.304 266.678 137.505 266.846 137.766C267.014 138.027 267.098 138.368 267.098 138.788C267.098 139.255 266.958 139.661 266.678 140.006C266.407 140.351 266.02 140.622 265.516 140.818C265.012 141.005 264.41 141.098 263.71 141.098ZM276.034 141.098C275.269 141.098 274.588 140.935 273.99 140.608C273.393 140.272 272.922 139.815 272.576 139.236C272.231 138.657 272.058 137.999 272.058 137.262C272.058 136.515 272.231 135.857 272.576 135.288C272.922 134.709 273.393 134.257 273.99 133.93C274.588 133.603 275.269 133.44 276.034 133.44C276.809 133.44 277.495 133.603 278.092 133.93C278.699 134.257 279.17 134.705 279.506 135.274C279.852 135.843 280.024 136.506 280.024 137.262C280.024 137.999 279.852 138.657 279.506 139.236C279.17 139.815 278.699 140.272 278.092 140.608C277.495 140.935 276.809 141.098 276.034 141.098ZM276.034 139.6C276.464 139.6 276.846 139.507 277.182 139.32C277.518 139.133 277.78 138.863 277.966 138.508C278.162 138.153 278.26 137.738 278.26 137.262C278.26 136.777 278.162 136.361 277.966 136.016C277.78 135.661 277.518 135.391 277.182 135.204C276.846 135.017 276.468 134.924 276.048 134.924C275.619 134.924 275.236 135.017 274.9 135.204C274.574 135.391 274.312 135.661 274.116 136.016C273.92 136.361 273.822 136.777 273.822 137.262C273.822 137.738 273.92 138.153 274.116 138.508C274.312 138.863 274.574 139.133 274.9 139.32C275.236 139.507 275.614 139.6 276.034 139.6ZM285.942 141.098C285.335 141.098 284.78 140.958 284.276 140.678C283.781 140.398 283.384 139.978 283.086 139.418C282.796 138.849 282.652 138.13 282.652 137.262C282.652 136.385 282.792 135.666 283.072 135.106C283.361 134.546 283.753 134.131 284.248 133.86C284.742 133.58 285.307 133.44 285.942 133.44C286.679 133.44 287.328 133.599 287.888 133.916C288.457 134.233 288.905 134.677 289.232 135.246C289.568 135.815 289.736 136.487 289.736 137.262C289.736 138.037 289.568 138.713 289.232 139.292C288.905 139.861 288.457 140.305 287.888 140.622C287.328 140.939 286.679 141.098 285.942 141.098ZM281.798 143.716V133.524H283.464V135.288L283.408 137.276L283.548 139.264V143.716H281.798ZM285.746 139.6C286.166 139.6 286.539 139.507 286.866 139.32C287.202 139.133 287.468 138.863 287.664 138.508C287.86 138.153 287.958 137.738 287.958 137.262C287.958 136.777 287.86 136.361 287.664 136.016C287.468 135.661 287.202 135.391 286.866 135.204C286.539 135.017 286.166 134.924 285.746 134.924C285.326 134.924 284.948 135.017 284.612 135.204C284.276 135.391 284.01 135.661 283.814 136.016C283.618 136.361 283.52 136.777 283.52 137.262C283.52 137.738 283.618 138.153 283.814 138.508C284.01 138.863 284.276 139.133 284.612 139.32C284.948 139.507 285.326 139.6 285.746 139.6ZM294.855 141.098C294.09 141.098 293.409 140.935 292.811 140.608C292.214 140.272 291.743 139.815 291.397 139.236C291.052 138.657 290.879 137.999 290.879 137.262C290.879 136.515 291.052 135.857 291.397 135.288C291.743 134.709 292.214 134.257 292.811 133.93C293.409 133.603 294.09 133.44 294.855 133.44C295.63 133.44 296.316 133.603 296.913 133.93C297.52 134.257 297.991 134.705 298.327 135.274C298.673 135.843 298.845 136.506 298.845 137.262C298.845 137.999 298.673 138.657 298.327 139.236C297.991 139.815 297.52 140.272 296.913 140.608C296.316 140.935 295.63 141.098 294.855 141.098ZM294.855 139.6C295.285 139.6 295.667 139.507 296.003 139.32C296.339 139.133 296.601 138.863 296.787 138.508C296.983 138.153 297.081 137.738 297.081 137.262C297.081 136.777 296.983 136.361 296.787 136.016C296.601 135.661 296.339 135.391 296.003 135.204C295.667 135.017 295.289 134.924 294.869 134.924C294.44 134.924 294.057 135.017 293.721 135.204C293.395 135.391 293.133 135.661 292.937 136.016C292.741 136.361 292.643 136.777 292.643 137.262C292.643 137.738 292.741 138.153 292.937 138.508C293.133 138.863 293.395 139.133 293.721 139.32C294.057 139.507 294.435 139.6 294.855 139.6ZM300.619 141V133.524H302.285V135.582L302.089 134.98C302.313 134.476 302.663 134.093 303.139 133.832C303.624 133.571 304.226 133.44 304.945 133.44V135.106C304.87 135.087 304.8 135.078 304.735 135.078C304.669 135.069 304.604 135.064 304.539 135.064C303.876 135.064 303.349 135.26 302.957 135.652C302.565 136.035 302.369 136.609 302.369 137.374V141H300.619ZM309.617 141.098C308.795 141.098 308.161 140.888 307.713 140.468C307.265 140.039 307.041 139.409 307.041 138.578V131.872H308.791V138.536C308.791 138.891 308.879 139.166 309.057 139.362C309.243 139.558 309.5 139.656 309.827 139.656C310.219 139.656 310.545 139.553 310.807 139.348L311.297 140.594C311.091 140.762 310.839 140.888 310.541 140.972C310.242 141.056 309.934 141.098 309.617 141.098ZM305.809 134.98V133.58H310.793V134.98H305.809ZM316 141.098C315.366 141.098 314.806 140.981 314.32 140.748C313.835 140.505 313.457 140.141 313.186 139.656C312.916 139.161 312.78 138.541 312.78 137.794V133.524H314.53V137.556C314.53 138.228 314.68 138.732 314.978 139.068C315.286 139.395 315.72 139.558 316.28 139.558C316.691 139.558 317.046 139.474 317.344 139.306C317.652 139.138 317.89 138.886 318.058 138.55C318.236 138.214 318.324 137.799 318.324 137.304V133.524H320.074V141H318.408V138.984L318.702 139.6C318.45 140.085 318.082 140.459 317.596 140.72C317.111 140.972 316.579 141.098 316 141.098ZM326.708 133.44C327.305 133.44 327.837 133.557 328.304 133.79C328.78 134.023 329.153 134.383 329.424 134.868C329.694 135.344 329.83 135.96 329.83 136.716V141H328.08V136.94C328.08 136.277 327.921 135.783 327.604 135.456C327.296 135.129 326.862 134.966 326.302 134.966C325.891 134.966 325.527 135.05 325.21 135.218C324.892 135.386 324.645 135.638 324.468 135.974C324.3 136.301 324.216 136.716 324.216 137.22V141H322.466V133.524H324.132V135.54L323.838 134.924C324.099 134.448 324.477 134.084 324.972 133.832C325.476 133.571 326.054 133.44 326.708 133.44ZM332.15 141V133.524H333.9V141H332.15ZM333.032 132.292C332.705 132.292 332.434 132.189 332.22 131.984C332.014 131.779 331.912 131.531 331.912 131.242C331.912 130.943 332.014 130.696 332.22 130.5C332.434 130.295 332.705 130.192 333.032 130.192C333.358 130.192 333.624 130.29 333.83 130.486C334.044 130.673 334.152 130.911 334.152 131.2C334.152 131.508 334.049 131.769 333.844 131.984C333.638 132.189 333.368 132.292 333.032 132.292ZM339.46 141.098C338.742 141.098 338.093 140.939 337.514 140.622C336.945 140.295 336.497 139.847 336.17 139.278C335.844 138.709 335.68 138.037 335.68 137.262C335.68 136.487 335.844 135.815 336.17 135.246C336.497 134.677 336.945 134.233 337.514 133.916C338.093 133.599 338.742 133.44 339.46 133.44C340.086 133.44 340.646 133.58 341.14 133.86C341.635 134.131 342.027 134.546 342.316 135.106C342.606 135.666 342.75 136.385 342.75 137.262C342.75 138.13 342.61 138.849 342.33 139.418C342.05 139.978 341.663 140.398 341.168 140.678C340.674 140.958 340.104 141.098 339.46 141.098ZM339.67 139.6C340.09 139.6 340.464 139.507 340.79 139.32C341.126 139.133 341.392 138.863 341.588 138.508C341.794 138.153 341.896 137.738 341.896 137.262C341.896 136.777 341.794 136.361 341.588 136.016C341.392 135.661 341.126 135.391 340.79 135.204C340.464 135.017 340.09 134.924 339.67 134.924C339.25 134.924 338.872 135.017 338.536 135.204C338.21 135.391 337.944 135.661 337.738 136.016C337.542 136.361 337.444 136.777 337.444 137.262C337.444 137.738 337.542 138.153 337.738 138.508C337.944 138.863 338.21 139.133 338.536 139.32C338.872 139.507 339.25 139.6 339.67 139.6ZM341.938 141V139.236L342.008 137.248L341.868 135.26V130.612H343.604V141H341.938ZM350.614 141V139.488L350.516 139.166V136.52C350.516 136.007 350.362 135.61 350.054 135.33C349.746 135.041 349.279 134.896 348.654 134.896C348.234 134.896 347.818 134.961 347.408 135.092C347.006 135.223 346.666 135.405 346.386 135.638L345.7 134.364C346.101 134.056 346.577 133.827 347.128 133.678C347.688 133.519 348.266 133.44 348.864 133.44C349.946 133.44 350.782 133.701 351.37 134.224C351.967 134.737 352.266 135.535 352.266 136.618V141H350.614ZM348.262 141.098C347.702 141.098 347.212 141.005 346.792 140.818C346.372 140.622 346.045 140.356 345.812 140.02C345.588 139.675 345.476 139.287 345.476 138.858C345.476 138.438 345.574 138.06 345.77 137.724C345.975 137.388 346.306 137.122 346.764 136.926C347.221 136.73 347.828 136.632 348.584 136.632H350.754V137.794H348.71C348.112 137.794 347.711 137.892 347.506 138.088C347.3 138.275 347.198 138.508 347.198 138.788C347.198 139.105 347.324 139.357 347.576 139.544C347.828 139.731 348.178 139.824 348.626 139.824C349.055 139.824 349.438 139.726 349.774 139.53C350.119 139.334 350.366 139.045 350.516 138.662L350.81 139.712C350.642 140.151 350.338 140.491 349.9 140.734C349.47 140.977 348.924 141.098 348.262 141.098ZM357.789 141.098C357.071 141.098 356.422 140.939 355.843 140.622C355.274 140.295 354.826 139.847 354.499 139.278C354.173 138.709 354.009 138.037 354.009 137.262C354.009 136.487 354.173 135.815 354.499 135.246C354.826 134.677 355.274 134.233 355.843 133.916C356.422 133.599 357.071 133.44 357.789 133.44C358.415 133.44 358.975 133.58 359.469 133.86C359.964 134.131 360.356 134.546 360.645 135.106C360.935 135.666 361.079 136.385 361.079 137.262C361.079 138.13 360.939 138.849 360.659 139.418C360.379 139.978 359.992 140.398 359.497 140.678C359.003 140.958 358.433 141.098 357.789 141.098ZM357.999 139.6C358.419 139.6 358.793 139.507 359.119 139.32C359.455 139.133 359.721 138.863 359.917 138.508C360.123 138.153 360.225 137.738 360.225 137.262C360.225 136.777 360.123 136.361 359.917 136.016C359.721 135.661 359.455 135.391 359.119 135.204C358.793 135.017 358.419 134.924 357.999 134.924C357.579 134.924 357.201 135.017 356.865 135.204C356.539 135.391 356.273 135.661 356.067 136.016C355.871 136.361 355.773 136.777 355.773 137.262C355.773 137.738 355.871 138.153 356.067 138.508C356.273 138.863 356.539 139.133 356.865 139.32C357.201 139.507 357.579 139.6 357.999 139.6ZM360.267 141V139.236L360.337 137.248L360.197 135.26V130.612H361.933V141H360.267ZM367.851 141.098C367.02 141.098 366.292 140.935 365.667 140.608C365.051 140.272 364.57 139.815 364.225 139.236C363.889 138.657 363.721 137.999 363.721 137.262C363.721 136.515 363.884 135.857 364.211 135.288C364.547 134.709 365.004 134.257 365.583 133.93C366.171 133.603 366.838 133.44 367.585 133.44C368.313 133.44 368.961 133.599 369.531 133.916C370.1 134.233 370.548 134.681 370.875 135.26C371.201 135.839 371.365 136.52 371.365 137.304C371.365 137.379 371.36 137.463 371.351 137.556C371.351 137.649 371.346 137.738 371.337 137.822H365.107V136.66H370.413L369.727 137.024C369.736 136.595 369.647 136.217 369.461 135.89C369.274 135.563 369.017 135.307 368.691 135.12C368.373 134.933 368.005 134.84 367.585 134.84C367.155 134.84 366.777 134.933 366.451 135.12C366.133 135.307 365.881 135.568 365.695 135.904C365.517 136.231 365.429 136.618 365.429 137.066V137.346C365.429 137.794 365.531 138.191 365.737 138.536C365.942 138.881 366.231 139.147 366.605 139.334C366.978 139.521 367.407 139.614 367.893 139.614C368.313 139.614 368.691 139.549 369.027 139.418C369.363 139.287 369.661 139.082 369.923 138.802L370.861 139.88C370.525 140.272 370.1 140.575 369.587 140.79C369.083 140.995 368.504 141.098 367.851 141.098ZM375.456 141.098C374.83 141.098 374.228 141.019 373.65 140.86C373.08 140.692 372.628 140.491 372.292 140.258L372.964 138.928C373.3 139.143 373.701 139.32 374.168 139.46C374.634 139.6 375.101 139.67 375.568 139.67C376.118 139.67 376.515 139.595 376.758 139.446C377.01 139.297 377.136 139.096 377.136 138.844C377.136 138.639 377.052 138.485 376.884 138.382C376.716 138.27 376.496 138.186 376.226 138.13C375.955 138.074 375.652 138.023 375.316 137.976C374.989 137.929 374.658 137.869 374.322 137.794C373.995 137.71 373.696 137.593 373.426 137.444C373.155 137.285 372.936 137.075 372.768 136.814C372.6 136.553 372.516 136.207 372.516 135.778C372.516 135.302 372.651 134.891 372.922 134.546C373.192 134.191 373.57 133.921 374.056 133.734C374.55 133.538 375.134 133.44 375.806 133.44C376.31 133.44 376.818 133.496 377.332 133.608C377.845 133.72 378.27 133.879 378.606 134.084L377.934 135.414C377.579 135.199 377.22 135.055 376.856 134.98C376.501 134.896 376.146 134.854 375.792 134.854C375.26 134.854 374.863 134.933 374.602 135.092C374.35 135.251 374.224 135.451 374.224 135.694C374.224 135.918 374.308 136.086 374.476 136.198C374.644 136.31 374.863 136.399 375.134 136.464C375.404 136.529 375.703 136.585 376.03 136.632C376.366 136.669 376.697 136.73 377.024 136.814C377.35 136.898 377.649 137.015 377.92 137.164C378.2 137.304 378.424 137.505 378.592 137.766C378.76 138.027 378.844 138.368 378.844 138.788C378.844 139.255 378.704 139.661 378.424 140.006C378.153 140.351 377.766 140.622 377.262 140.818C376.758 141.005 376.156 141.098 375.456 141.098ZM222.292 161.098C221.685 161.098 221.13 160.958 220.626 160.678C220.131 160.398 219.735 159.978 219.436 159.418C219.147 158.849 219.002 158.13 219.002 157.262C219.002 156.385 219.142 155.666 219.422 155.106C219.711 154.546 220.103 154.131 220.598 153.86C221.093 153.58 221.657 153.44 222.292 153.44C223.029 153.44 223.678 153.599 224.238 153.916C224.807 154.233 225.255 154.677 225.582 155.246C225.918 155.815 226.086 156.487 226.086 157.262C226.086 158.037 225.918 158.713 225.582 159.292C225.255 159.861 224.807 160.305 224.238 160.622C223.678 160.939 223.029 161.098 222.292 161.098ZM218.148 163.716V153.524H219.814V155.288L219.758 157.276L219.898 159.264V163.716H218.148ZM222.096 159.6C222.516 159.6 222.889 159.507 223.216 159.32C223.552 159.133 223.818 158.863 224.014 158.508C224.21 158.153 224.308 157.738 224.308 157.262C224.308 156.777 224.21 156.361 224.014 156.016C223.818 155.661 223.552 155.391 223.216 155.204C222.889 155.017 222.516 154.924 222.096 154.924C221.676 154.924 221.298 155.017 220.962 155.204C220.626 155.391 220.36 155.661 220.164 156.016C219.968 156.361 219.87 156.777 219.87 157.262C219.87 157.738 219.968 158.153 220.164 158.508C220.36 158.863 220.626 159.133 220.962 159.32C221.298 159.507 221.676 159.6 222.096 159.6ZM227.846 161V153.524H229.512V155.582L229.316 154.98C229.54 154.476 229.89 154.093 230.366 153.832C230.851 153.571 231.453 153.44 232.172 153.44V155.106C232.097 155.087 232.027 155.078 231.962 155.078C231.896 155.069 231.831 155.064 231.766 155.064C231.103 155.064 230.576 155.26 230.184 155.652C229.792 156.035 229.596 156.609 229.596 157.374V161H227.846ZM237.829 161V159.488L237.731 159.166V156.52C237.731 156.007 237.577 155.61 237.269 155.33C236.961 155.041 236.494 154.896 235.869 154.896C235.449 154.896 235.034 154.961 234.623 155.092C234.222 155.223 233.881 155.405 233.601 155.638L232.915 154.364C233.316 154.056 233.792 153.827 234.343 153.678C234.903 153.519 235.482 153.44 236.079 153.44C237.162 153.44 237.997 153.701 238.585 154.224C239.182 154.737 239.481 155.535 239.481 156.618V161H237.829ZM235.477 161.098C234.917 161.098 234.427 161.005 234.007 160.818C233.587 160.622 233.26 160.356 233.027 160.02C232.803 159.675 232.691 159.287 232.691 158.858C232.691 158.438 232.789 158.06 232.985 157.724C233.19 157.388 233.522 157.122 233.979 156.926C234.436 156.73 235.043 156.632 235.799 156.632H237.969V157.794H235.925C235.328 157.794 234.926 157.892 234.721 158.088C234.516 158.275 234.413 158.508 234.413 158.788C234.413 159.105 234.539 159.357 234.791 159.544C235.043 159.731 235.393 159.824 235.841 159.824C236.27 159.824 236.653 159.726 236.989 159.53C237.334 159.334 237.582 159.045 237.731 158.662L238.025 159.712C237.857 160.151 237.554 160.491 237.115 160.734C236.686 160.977 236.14 161.098 235.477 161.098ZM247.784 161L244.578 153.524H246.398L249.156 160.118H248.26L251.116 153.524H252.796L249.59 161H247.784ZM257.145 161.098C256.379 161.098 255.698 160.935 255.101 160.608C254.503 160.272 254.032 159.815 253.687 159.236C253.341 158.657 253.169 157.999 253.169 157.262C253.169 156.515 253.341 155.857 253.687 155.288C254.032 154.709 254.503 154.257 255.101 153.93C255.698 153.603 256.379 153.44 257.145 153.44C257.919 153.44 258.605 153.603 259.203 153.93C259.809 154.257 260.281 154.705 260.617 155.274C260.962 155.843 261.135 156.506 261.135 157.262C261.135 157.999 260.962 158.657 260.617 159.236C260.281 159.815 259.809 160.272 259.203 160.608C258.605 160.935 257.919 161.098 257.145 161.098ZM257.145 159.6C257.574 159.6 257.957 159.507 258.293 159.32C258.629 159.133 258.89 158.863 259.077 158.508C259.273 158.153 259.371 157.738 259.371 157.262C259.371 156.777 259.273 156.361 259.077 156.016C258.89 155.661 258.629 155.391 258.293 155.204C257.957 155.017 257.579 154.924 257.159 154.924C256.729 154.924 256.347 155.017 256.011 155.204C255.684 155.391 255.423 155.661 255.227 156.016C255.031 156.361 254.933 156.777 254.933 157.262C254.933 157.738 255.031 158.153 255.227 158.508C255.423 158.863 255.684 159.133 256.011 159.32C256.347 159.507 256.725 159.6 257.145 159.6ZM266.338 161.098C265.554 161.098 264.854 160.935 264.238 160.608C263.631 160.272 263.155 159.815 262.81 159.236C262.465 158.657 262.292 157.999 262.292 157.262C262.292 156.515 262.465 155.857 262.81 155.288C263.155 154.709 263.631 154.257 264.238 153.93C264.854 153.603 265.554 153.44 266.338 153.44C267.066 153.44 267.705 153.589 268.256 153.888C268.816 154.177 269.241 154.607 269.53 155.176L268.186 155.96C267.962 155.605 267.687 155.344 267.36 155.176C267.043 155.008 266.697 154.924 266.324 154.924C265.895 154.924 265.507 155.017 265.162 155.204C264.817 155.391 264.546 155.661 264.35 156.016C264.154 156.361 264.056 156.777 264.056 157.262C264.056 157.747 264.154 158.167 264.35 158.522C264.546 158.867 264.817 159.133 265.162 159.32C265.507 159.507 265.895 159.6 266.324 159.6C266.697 159.6 267.043 159.516 267.36 159.348C267.687 159.18 267.962 158.919 268.186 158.564L269.53 159.348C269.241 159.908 268.816 160.342 268.256 160.65C267.705 160.949 267.066 161.098 266.338 161.098ZM274.548 161.098C273.717 161.098 272.989 160.935 272.364 160.608C271.748 160.272 271.267 159.815 270.922 159.236C270.586 158.657 270.418 157.999 270.418 157.262C270.418 156.515 270.581 155.857 270.908 155.288C271.244 154.709 271.701 154.257 272.28 153.93C272.868 153.603 273.535 153.44 274.282 153.44C275.01 153.44 275.658 153.599 276.228 153.916C276.797 154.233 277.245 154.681 277.572 155.26C277.898 155.839 278.062 156.52 278.062 157.304C278.062 157.379 278.057 157.463 278.048 157.556C278.048 157.649 278.043 157.738 278.034 157.822H271.804V156.66H277.11L276.424 157.024C276.433 156.595 276.344 156.217 276.158 155.89C275.971 155.563 275.714 155.307 275.388 155.12C275.07 154.933 274.702 154.84 274.282 154.84C273.852 154.84 273.474 154.933 273.148 155.12C272.83 155.307 272.578 155.568 272.392 155.904C272.214 156.231 272.126 156.618 272.126 157.066V157.346C272.126 157.794 272.228 158.191 272.434 158.536C272.639 158.881 272.928 159.147 273.302 159.334C273.675 159.521 274.104 159.614 274.59 159.614C275.01 159.614 275.388 159.549 275.724 159.418C276.06 159.287 276.358 159.082 276.62 158.802L277.558 159.88C277.222 160.272 276.797 160.575 276.284 160.79C275.78 160.995 275.201 161.098 274.548 161.098ZM271.566 152.502L273.442 150.584H275.038L276.914 152.502H275.472L273.568 150.892H274.912L273.008 152.502H271.566ZM279.955 157.752L279.619 151.2H281.691L281.341 157.752H279.955ZM280.655 161.098C280.328 161.098 280.057 160.991 279.843 160.776C279.628 160.561 279.521 160.305 279.521 160.006C279.521 159.707 279.628 159.455 279.843 159.25C280.057 159.035 280.328 158.928 280.655 158.928C280.981 158.928 281.247 159.035 281.453 159.25C281.658 159.455 281.761 159.707 281.761 160.006C281.761 160.305 281.658 160.561 281.453 160.776C281.247 160.991 280.981 161.098 280.655 161.098Z" fill="white"/>
<path d="M42.02 75V49.26H47.78V70.32H66.608V75H42.02ZM69.9253 75V56.46H75.1453V75H69.9253ZM69.8893 53.4V49.332H75.1813V53.4H69.8893ZM102.175 83.1H96.9551V75H88.8551C85.6391 75 83.1311 74.208 81.3311 72.624C79.5311 71.04 78.6311 68.736 78.6311 65.712C78.6311 62.712 79.5311 60.42 81.3311 58.836C83.1311 57.252 85.6391 56.46 88.8551 56.46H102.175V83.1ZM88.8551 60.6C87.2951 60.6 86.0951 61.032 85.2551 61.896C84.4391 62.736 84.0311 64.008 84.0311 65.712C84.0311 67.44 84.4391 68.736 85.2551 69.6C86.0951 70.44 87.2951 70.86 88.8551 70.86H96.9551V60.6H88.8551ZM112.294 75C110.182 75 108.634 74.472 107.65 73.416C106.69 72.36 106.21 70.992 106.21 69.312V56.46H111.43V68.7C111.43 70.14 112.15 70.86 113.59 70.86H121.078C122.518 70.86 123.238 70.14 123.238 68.7V56.46H128.458V69.312C128.458 70.992 127.966 72.36 126.982 73.416C126.022 74.472 124.486 75 122.374 75H112.294ZM132.48 75V56.46H137.7V75H132.48ZM132.444 53.4V49.332H137.736V53.4H132.444ZM164.73 75H159.51V49.26H164.73V75ZM163.83 75H151.41C148.194 75 145.686 74.208 143.886 72.624C142.086 71.04 141.186 68.748 141.186 65.748C141.186 62.724 142.086 60.42 143.886 58.836C145.686 57.252 148.194 56.46 151.41 56.46H163.47V60.6H151.41C149.85 60.6 148.65 61.032 147.81 61.896C146.994 62.736 146.586 64.02 146.586 65.748C146.586 67.452 146.994 68.736 147.81 69.6C148.65 70.44 149.85 70.86 151.41 70.86H163.83V75ZM173.877 75C171.933 75 170.445 74.508 169.413 73.524C168.381 72.54 167.865 71.136 167.865 69.312C167.865 67.512 168.381 66.12 169.413 65.136C170.445 64.152 171.933 63.66 173.877 63.66H187.701V62.796C187.701 61.332 186.981 60.6 185.541 60.6H170.277V56.46H186.909C189.093 56.46 190.641 56.964 191.553 57.972C192.465 58.956 192.921 60.348 192.921 62.148V75H173.877ZM174.813 70.86H187.701V67.8H174.813C174.357 67.8 173.997 67.944 173.733 68.232C173.493 68.496 173.373 68.856 173.373 69.312C173.373 69.768 173.493 70.14 173.733 70.428C173.997 70.716 174.357 70.86 174.813 70.86Z" fill="white"/>
<mask id="mask1_55_852" style="mask-type:luminance" maskUnits="userSpaceOnUse" x="39" y="92" width="66" height="18">
<path d="M104.5 92.8697H39.5V109.827H104.5V92.8697Z" fill="white"/>
</mask>
<g mask="url(#mask1_55_852)">
<path d="M46.9258 108.96C45.5703 108.96 44.5748 108.615 43.9393 107.921C43.3004 107.227 42.9827 106.314 42.9827 105.185V99.4009H39.5V96.6516H42.9794V92.8697H46.3648V96.6483H51.3618V99.3975H46.3648V104.753C46.3648 105.726 46.8318 106.211 47.7656 106.211H52.0136V108.96H46.9225H46.9258Z" fill="white"/>
<path d="M79.142 109.08C77.0572 109.08 75.429 108.548 74.2618 107.489C73.0944 106.43 72.5107 104.873 72.5107 102.814C72.5107 100.756 73.0944 99.1751 74.2618 98.1159C75.429 97.0567 77.0572 96.5254 79.142 96.5254H86.9636V99.2747H79.142C78.1302 99.2747 77.3554 99.5602 76.8204 100.135C76.2852 100.709 76.0161 101.602 76.0161 102.811C76.0161 104.019 76.2852 104.889 76.8204 105.464C77.3554 106.038 78.1302 106.324 79.142 106.324H87.1968V109.073H79.142V109.08Z" fill="white"/>
<path d="M92.1486 108.96C90.8872 108.96 89.9209 108.635 89.2528 107.981C88.5847 107.327 88.2476 106.394 88.2476 105.185C88.2476 103.976 88.5816 103.067 89.2528 102.412C89.9209 101.758 90.8872 101.433 92.1486 101.433H101.115V100.859C101.115 99.8857 100.648 99.4009 99.7136 99.4009H89.8138V96.6516H100.599C102.016 96.6516 103.018 96.9836 103.612 97.6444C104.202 98.3051 104.5 99.2349 104.5 100.43V108.964H92.1486V108.96ZM92.7548 106.211H101.115V104.179H92.7548C92.4597 104.179 92.2296 104.272 92.0676 104.454C91.9053 104.637 91.8212 104.879 91.8212 105.185C91.8212 105.49 91.9022 105.736 92.0676 105.925C92.2327 106.115 92.4597 106.211 92.7548 106.211Z" fill="white"/>
<path d="M61.9882 104.541C59.8739 104.511 57.7273 104.209 55.707 103.256C54.8348 102.844 54.0306 102.326 53.4145 101.549C52.5389 100.447 52.5357 99.1352 53.4145 98.0395C54.2446 97.0069 55.3601 96.4158 56.5566 95.9709C58.3596 95.3002 60.2274 95.0611 62.1438 95.0645C64.0116 95.0678 65.834 95.3201 67.5915 95.9709C68.6033 96.3461 69.5502 96.8408 70.3381 97.6112C71.7293 98.9725 71.7163 100.646 70.3089 101.991C69.4626 102.801 68.4444 103.302 67.3646 103.688C65.6524 104.295 63.8787 104.521 61.9882 104.541ZM66.1842 102.612C67.063 102.333 68.0326 101.921 68.7914 101.127C69.7642 100.111 69.7026 98.8962 68.6324 97.9831C68.0747 97.5049 67.4262 97.1962 66.729 97.0036C63.7068 96.1602 60.6749 96.1735 57.6429 96.9338C56.8647 97.1297 56.1351 97.4485 55.5092 97.9764C54.504 98.8264 54.3516 99.9355 55.1428 100.908C55.9113 101.855 56.9685 102.31 58.0904 102.635C57.9348 102.539 57.7694 102.469 57.604 102.396C57.0301 102.134 56.4885 101.815 56.0832 101.31C55.5741 100.673 55.5741 99.9388 56.0832 99.3046C56.4983 98.7899 57.0398 98.4479 57.6365 98.2055C60.0815 97.2094 62.5881 97.153 65.1271 97.7407C66.1194 97.9698 67.0695 98.3317 67.8283 99.0622C68.6454 99.8491 68.6552 100.825 67.7894 101.559C67.2738 101.997 66.6577 102.31 66.1875 102.615L66.1842 102.612ZM65.4806 102.476C66.1453 102.283 66.6577 102.011 67.0273 101.506C67.4424 100.938 67.3711 100.324 66.7939 99.9355C66.4177 99.6831 66.0091 99.4573 65.5876 99.3046C63.8462 98.6704 62.053 98.6173 60.2436 98.8763C59.2254 99.019 58.2396 99.2946 57.3738 99.8989C56.7577 100.331 56.6669 100.948 57.1273 101.546C57.5003 102.027 58.0029 102.296 58.6125 102.466C58.5639 102.402 58.5509 102.373 58.5282 102.353C57.8245 101.695 57.8667 101.131 58.6611 100.59C58.7455 100.533 58.8363 100.48 58.927 100.434C59.822 99.9786 60.7819 99.8292 61.7644 99.7993C62.9804 99.7661 64.177 99.8856 65.273 100.47C66.2718 101.005 66.3496 101.642 65.4773 102.472L65.4806 102.476ZM59.6696 101.499C59.4524 101.606 59.2189 101.868 59.18 102.09C59.1541 102.25 59.4232 102.489 59.5951 102.652C59.7053 102.754 59.8772 102.801 60.0263 102.847C60.8273 103.103 61.6509 103.17 62.4811 103.123C63.1847 103.083 63.8949 103.023 64.5207 102.655C64.7218 102.535 64.9617 102.263 64.952 102.07C64.9423 101.871 64.7088 101.612 64.4851 101.496C62.3903 100.38 60.4187 101.134 59.6696 101.503V101.499Z" fill="white"/>
<path d="M58.2363 104.79C60.1528 105.158 63.9662 105.165 65.8924 104.783C65.7367 105.172 65.6102 105.514 65.4578 105.842C65.4222 105.919 65.3022 105.972 65.2114 106.002C63.7846 106.457 60.409 106.467 58.9822 106.015C58.8362 105.969 58.6936 105.809 58.6125 105.666C58.4698 105.407 58.3758 105.122 58.2363 104.79Z" fill="white"/>
<path d="M59.355 106.829C61.0964 107.27 62.9577 107.267 64.7736 106.838C64.7055 107.692 64.4818 108.001 63.7003 108.183C62.948 108.359 60.9051 108.339 60.1625 108.074C59.7993 107.944 59.5529 107.748 59.501 107.337C59.4815 107.181 59.4134 107.028 59.355 106.829Z" fill="white"/>
<path d="M60.1949 108.615C61.5634 109.116 62.4389 109.116 63.9338 108.642C63.8073 109.578 63.8592 109.588 63.0031 109.777C62.5686 109.873 61.4337 109.81 60.9829 109.747C60.3863 109.664 60.1917 109.216 60.1982 108.618L60.1949 108.615Z" fill="white"/>
</g>
<circle cx="151.5" cy="134" r="44" fill="#FEEA10"/>
<path d="M118.18 145V141.88H130.924C132.444 141.88 133.204 141.232 133.204 139.936C133.204 138.64 132.444 137.992 130.924 137.992H118.18V127.864H136.228V130.96H121.9V134.872H131.668C133.332 134.872 134.62 135.32 135.532 136.216C136.46 137.112 136.924 138.352 136.924 139.936C136.924 141.52 136.46 142.76 135.532 143.656C134.62 144.552 133.332 145 131.668 145H118.18ZM148.643 145.12C145.555 145.12 143.147 144.392 141.419 142.936C139.707 141.464 138.851 139.288 138.851 136.408C138.851 133.544 139.707 131.384 141.419 129.928C143.147 128.456 145.555 127.72 148.643 127.72H151.763C154.867 127.72 157.275 128.456 158.987 129.928C160.699 131.384 161.555 133.544 161.555 136.408C161.555 139.288 160.699 141.464 158.987 142.936C157.275 144.392 154.867 145.12 151.763 145.12H148.643ZM142.763 136.408C142.763 138.152 143.187 139.48 144.035 140.392L153.443 131.008C152.867 130.896 152.219 130.84 151.499 130.84H148.907C146.891 130.84 145.363 131.28 144.323 132.16C143.283 133.04 142.763 134.456 142.763 136.408ZM148.907 142H151.499C153.515 142 155.043 141.56 156.083 140.68C157.123 139.784 157.643 138.36 157.643 136.408C157.643 134.664 157.211 133.336 156.347 132.424L146.915 141.832C147.507 141.944 148.171 142 148.907 142ZM167.117 145L180.317 127.888H183.965L170.765 145H167.117ZM167.933 136.432C166.525 136.432 165.429 136.048 164.645 135.28C163.877 134.496 163.493 133.456 163.493 132.16C163.493 130.864 163.877 129.832 164.645 129.064C165.429 128.28 166.525 127.888 167.933 127.888H169.445C170.853 127.888 171.941 128.28 172.709 129.064C173.493 129.832 173.885 130.864 173.885 132.16C173.885 133.456 173.493 134.496 172.709 135.28C171.941 136.048 170.853 136.432 169.445 136.432H167.933ZM168.413 134.128H168.965C169.589 134.128 170.053 133.96 170.357 133.624C170.677 133.272 170.837 132.784 170.837 132.16C170.837 131.536 170.677 131.056 170.357 130.72C170.053 130.368 169.589 130.192 168.965 130.192H168.413C167.789 130.192 167.317 130.368 166.997 130.72C166.693 131.056 166.541 131.536 166.541 132.16C166.541 132.784 166.693 133.272 166.997 133.624C167.317 133.96 167.789 134.128 168.413 134.128ZM181.421 145C180.013 145 178.917 144.616 178.133 143.848C177.365 143.064 176.981 142.024 176.981 140.728C176.981 139.432 177.365 138.4 178.133 137.632C178.917 136.848 180.013 136.456 181.421 136.456H182.933C184.341 136.456 185.429 136.848 186.197 137.632C186.981 138.4 187.373 139.432 187.373 140.728C187.373 142.024 186.981 143.064 186.197 143.848C185.429 144.616 184.341 145 182.933 145H181.421ZM181.901 142.696H182.453C183.077 142.696 183.541 142.528 183.845 142.192C184.165 141.84 184.325 141.352 184.325 140.728C184.325 140.104 184.165 139.624 183.845 139.288C183.541 138.936 183.077 138.76 182.453 138.76H181.901C181.277 138.76 180.805 138.936 180.485 139.288C180.181 139.624 180.029 140.104 180.029 140.728C180.029 141.352 180.181 141.84 180.485 142.192C180.805 142.528 181.277 142.696 181.901 142.696Z" fill="#585858"/>
<path d="M122.008 121.084C121.252 121.084 120.575 120.921 119.978 120.594C119.39 120.267 118.928 119.819 118.592 119.25C118.256 118.681 118.088 118.027 118.088 117.29C118.088 116.553 118.256 115.899 118.592 115.33C118.928 114.761 119.39 114.317 119.978 114C120.575 113.673 121.252 113.51 122.008 113.51C122.68 113.51 123.277 113.645 123.8 113.916C124.332 114.177 124.743 114.569 125.032 115.092L124.01 115.75C123.767 115.386 123.469 115.12 123.114 114.952C122.769 114.775 122.395 114.686 121.994 114.686C121.509 114.686 121.075 114.793 120.692 115.008C120.309 115.223 120.006 115.526 119.782 115.918C119.558 116.301 119.446 116.758 119.446 117.29C119.446 117.822 119.558 118.284 119.782 118.676C120.006 119.068 120.309 119.371 120.692 119.586C121.075 119.801 121.509 119.908 121.994 119.908C122.395 119.908 122.769 119.824 123.114 119.656C123.469 119.479 123.767 119.208 124.01 118.844L125.032 119.488C124.743 120.001 124.332 120.398 123.8 120.678C123.277 120.949 122.68 121.084 122.008 121.084ZM130.091 121.084C129.344 121.084 128.681 120.921 128.103 120.594C127.524 120.267 127.067 119.819 126.731 119.25C126.395 118.671 126.227 118.018 126.227 117.29C126.227 116.553 126.395 115.899 126.731 115.33C127.067 114.761 127.524 114.317 128.103 114C128.681 113.673 129.344 113.51 130.091 113.51C130.828 113.51 131.486 113.673 132.065 114C132.653 114.317 133.11 114.761 133.437 115.33C133.773 115.89 133.941 116.543 133.941 117.29C133.941 118.027 133.773 118.681 133.437 119.25C133.11 119.819 132.653 120.267 132.065 120.594C131.486 120.921 130.828 121.084 130.091 121.084ZM130.091 119.908C130.567 119.908 130.991 119.801 131.365 119.586C131.747 119.371 132.046 119.068 132.261 118.676C132.475 118.275 132.583 117.813 132.583 117.29C132.583 116.758 132.475 116.301 132.261 115.918C132.046 115.526 131.747 115.223 131.365 115.008C130.991 114.793 130.567 114.686 130.091 114.686C129.615 114.686 129.19 114.793 128.817 115.008C128.443 115.223 128.145 115.526 127.921 115.918C127.697 116.301 127.585 116.758 127.585 117.29C127.585 117.813 127.697 118.275 127.921 118.676C128.145 119.068 128.443 119.371 128.817 119.586C129.19 119.801 129.615 119.908 130.091 119.908ZM145.331 113.51C145.929 113.51 146.456 113.627 146.913 113.86C147.371 114.093 147.725 114.448 147.977 114.924C148.239 115.4 148.369 116.002 148.369 116.73V121H147.025V116.884C147.025 116.165 146.857 115.624 146.521 115.26C146.185 114.896 145.714 114.714 145.107 114.714C144.659 114.714 144.267 114.807 143.931 114.994C143.595 115.181 143.334 115.456 143.147 115.82C142.97 116.184 142.881 116.637 142.881 117.178V121H141.537V116.884C141.537 116.165 141.369 115.624 141.033 115.26C140.707 114.896 140.235 114.714 139.619 114.714C139.181 114.714 138.793 114.807 138.457 114.994C138.121 115.181 137.86 115.456 137.673 115.82C137.487 116.184 137.393 116.637 137.393 117.178V121H136.049V113.58H137.337V115.554L137.127 115.05C137.361 114.565 137.72 114.187 138.205 113.916C138.691 113.645 139.255 113.51 139.899 113.51C140.609 113.51 141.22 113.687 141.733 114.042C142.247 114.387 142.583 114.915 142.741 115.624L142.195 115.4C142.419 114.831 142.811 114.373 143.371 114.028C143.931 113.683 144.585 113.51 145.331 113.51ZM159.708 121V119.432L159.638 119.138V116.464C159.638 115.895 159.47 115.456 159.134 115.148C158.807 114.831 158.313 114.672 157.65 114.672C157.211 114.672 156.782 114.747 156.362 114.896C155.942 115.036 155.587 115.227 155.298 115.47L154.738 114.462C155.121 114.154 155.578 113.921 156.11 113.762C156.651 113.594 157.216 113.51 157.804 113.51C158.821 113.51 159.605 113.757 160.156 114.252C160.707 114.747 160.982 115.503 160.982 116.52V121H159.708ZM157.272 121.084C156.721 121.084 156.236 120.991 155.816 120.804C155.405 120.617 155.088 120.361 154.864 120.034C154.64 119.698 154.528 119.32 154.528 118.9C154.528 118.499 154.621 118.135 154.808 117.808C155.004 117.481 155.317 117.22 155.746 117.024C156.185 116.828 156.773 116.73 157.51 116.73H159.862V117.696H157.566C156.894 117.696 156.441 117.808 156.208 118.032C155.975 118.256 155.858 118.527 155.858 118.844C155.858 119.208 156.003 119.502 156.292 119.726C156.581 119.941 156.983 120.048 157.496 120.048C158 120.048 158.439 119.936 158.812 119.712C159.195 119.488 159.47 119.161 159.638 118.732L159.904 119.656C159.727 120.095 159.414 120.445 158.966 120.706C158.518 120.958 157.953 121.084 157.272 121.084ZM166.267 121.084C165.521 121.084 164.942 120.883 164.531 120.482C164.121 120.081 163.915 119.507 163.915 118.76V111.956H165.259V118.704C165.259 119.105 165.357 119.413 165.553 119.628C165.759 119.843 166.048 119.95 166.421 119.95C166.841 119.95 167.191 119.833 167.471 119.6L167.891 120.566C167.686 120.743 167.439 120.874 167.149 120.958C166.869 121.042 166.575 121.084 166.267 121.084ZM162.655 114.686V113.58H167.387V114.686H162.655ZM172.824 121.084C172.031 121.084 171.331 120.921 170.724 120.594C170.127 120.267 169.66 119.819 169.324 119.25C168.997 118.681 168.834 118.027 168.834 117.29C168.834 116.553 168.993 115.899 169.31 115.33C169.637 114.761 170.08 114.317 170.64 114C171.209 113.673 171.849 113.51 172.558 113.51C173.277 113.51 173.911 113.669 174.462 113.986C175.013 114.303 175.442 114.751 175.75 115.33C176.067 115.899 176.226 116.567 176.226 117.332C176.226 117.388 176.221 117.453 176.212 117.528C176.212 117.603 176.207 117.673 176.198 117.738H169.884V116.772H175.498L174.952 117.108C174.961 116.632 174.863 116.207 174.658 115.834C174.453 115.461 174.168 115.171 173.804 114.966C173.449 114.751 173.034 114.644 172.558 114.644C172.091 114.644 171.676 114.751 171.312 114.966C170.948 115.171 170.663 115.465 170.458 115.848C170.253 116.221 170.15 116.651 170.15 117.136V117.36C170.15 117.855 170.262 118.298 170.486 118.69C170.719 119.073 171.041 119.371 171.452 119.586C171.863 119.801 172.334 119.908 172.866 119.908C173.305 119.908 173.701 119.833 174.056 119.684C174.42 119.535 174.737 119.311 175.008 119.012L175.75 119.88C175.414 120.272 174.994 120.571 174.49 120.776C173.995 120.981 173.44 121.084 172.824 121.084ZM171.494 112.502L173.398 110.682H175.106L172.754 112.502H171.494Z" fill="#585858"/>
<path d="M166.882 160.07C166.173 160.07 165.533 159.911 164.964 159.594C164.404 159.267 163.961 158.824 163.634 158.264C163.307 157.695 163.144 157.046 163.144 156.318C163.144 155.581 163.307 154.932 163.634 154.372C163.961 153.812 164.404 153.373 164.964 153.056C165.524 152.739 166.163 152.58 166.882 152.58C167.61 152.58 168.254 152.739 168.814 153.056C169.383 153.373 169.827 153.812 170.144 154.372C170.471 154.932 170.634 155.581 170.634 156.318C170.634 157.046 170.471 157.695 170.144 158.264C169.827 158.824 169.383 159.267 168.814 159.594C168.245 159.911 167.601 160.07 166.882 160.07ZM166.882 159.188C167.414 159.188 167.885 159.071 168.296 158.838C168.707 158.595 169.029 158.259 169.262 157.83C169.505 157.391 169.626 156.887 169.626 156.318C169.626 155.739 169.505 155.235 169.262 154.806C169.029 154.377 168.707 154.045 168.296 153.812C167.885 153.569 167.419 153.448 166.896 153.448C166.373 153.448 165.907 153.569 165.496 153.812C165.085 154.045 164.759 154.377 164.516 154.806C164.273 155.235 164.152 155.739 164.152 156.318C164.152 156.887 164.273 157.391 164.516 157.83C164.759 158.259 165.085 158.595 165.496 158.838C165.907 159.071 166.369 159.188 166.882 159.188ZM173.081 160V151.726C173.081 151.073 173.273 150.545 173.655 150.144C174.038 149.743 174.589 149.542 175.307 149.542C175.587 149.542 175.858 149.579 176.119 149.654C176.381 149.729 176.6 149.845 176.777 150.004L176.441 150.746C176.301 150.625 176.138 150.536 175.951 150.48C175.765 150.415 175.564 150.382 175.349 150.382C174.929 150.382 174.607 150.499 174.383 150.732C174.159 150.965 174.047 151.311 174.047 151.768V152.888L174.075 153.35V160H173.081ZM171.765 153.476V152.65H176.315V153.476H171.765ZM178.103 160V151.726C178.103 151.073 178.294 150.545 178.677 150.144C179.059 149.743 179.61 149.542 180.329 149.542C180.609 149.542 180.879 149.579 181.141 149.654C181.402 149.729 181.621 149.845 181.799 150.004L181.463 150.746C181.323 150.625 181.159 150.536 180.973 150.48C180.786 150.415 180.585 150.382 180.371 150.382C179.951 150.382 179.629 150.499 179.405 150.732C179.181 150.965 179.069 151.311 179.069 151.768V152.888L179.097 153.35V160H178.103ZM176.787 153.476V152.65H181.337V153.476H176.787Z" fill="#585858"/>
<path d="M108 135.5H24V0" stroke="#FEEA10" stroke-width="2"/>
</svg>
