<svg width="188" height="81" viewBox="0 0 188 81" fill="none" xmlns="http://www.w3.org/2000/svg">
<g clip-path="url(#clip0_40_225)">
<path d="M21.8634 46.4958C17.9639 46.4958 15.0999 45.4979 13.2714 43.4927C11.4336 41.4874 10.5194 38.8488 10.5194 35.5866V18.8727H0.5V10.9283H10.51V0H20.2495V10.9187H34.6255V18.8631H20.2495V34.3393C20.2495 37.1506 21.5929 38.5514 24.2796 38.5514H36.5007V46.4958H21.8541H21.8634Z" fill="white"/>
<path d="M114.547 46.8412C108.549 46.8412 103.865 45.306 100.507 42.2453C97.1485 39.1846 95.4693 34.6847 95.4693 28.736C95.4693 22.7873 97.1485 18.2203 100.507 15.1596C103.865 12.0989 108.549 10.5637 114.547 10.5637H137.049V18.5081H114.547C111.636 18.5081 109.407 19.3333 107.868 20.9931C106.328 22.653 105.554 25.234 105.554 28.7264C105.554 32.2189 106.328 34.7327 107.868 36.3926C109.407 38.0525 111.636 38.8776 114.547 38.8776H137.72V46.822H114.547V46.8412Z" fill="white"/>
<path d="M151.966 46.4958C148.337 46.4958 145.557 45.5555 143.635 43.6654C141.713 41.7752 140.743 39.0791 140.743 35.5867C140.743 32.0942 141.704 29.4653 143.635 27.5751C145.557 25.6849 148.337 24.7447 151.966 24.7447H177.761V23.0848C177.761 20.2736 176.417 18.8727 173.73 18.8727H145.249V10.9283H176.277C180.354 10.9283 183.237 11.8878 184.944 13.7972C186.642 15.7065 187.5 18.393 187.5 21.8471V46.5054H151.966V46.4958ZM153.71 38.5514H177.761V32.6795H153.71C152.861 32.6795 152.199 32.9481 151.733 33.4758C151.266 34.0035 151.024 34.7039 151.024 35.5867C151.024 36.4694 151.257 37.1794 151.733 37.7263C152.208 38.2732 152.861 38.5514 153.71 38.5514Z" fill="white"/>
<path d="M65.1967 33.7253C59.1142 33.639 52.9384 32.7658 47.1264 30.0122C44.6169 28.8224 42.3033 27.3257 40.5308 25.0805C38.012 21.8951 38.0026 18.1052 40.5308 14.9389C42.919 11.955 46.1282 10.2471 49.5706 8.96146C54.7575 7.02333 60.131 6.33251 65.6445 6.34211C71.018 6.3517 76.2609 7.0809 81.3172 8.96146C84.2279 10.0457 86.9519 11.4753 89.2189 13.7012C93.221 17.635 93.1837 22.4708 89.1349 26.3566C86.7001 28.6977 83.7708 30.1465 80.6642 31.2595C75.7385 33.0153 70.6355 33.6677 65.1967 33.7253ZM77.2684 28.1508C79.7966 27.3449 82.586 26.1551 84.769 23.862C87.5677 20.926 87.3904 17.4144 84.3118 14.7758C82.7072 13.3942 80.8414 12.5019 78.8357 11.9454C70.1411 9.50835 61.4184 9.54673 52.6958 11.7439C50.4569 12.31 48.3578 13.2311 46.5573 14.7566C43.6653 17.2129 43.2269 20.4175 45.5032 23.2287C47.7141 25.9632 50.7554 27.2777 53.9832 28.218C53.5354 27.9397 53.0597 27.7382 52.5839 27.5272C50.9326 26.7692 49.3747 25.8481 48.2086 24.3897C46.7439 22.5475 46.7439 20.4271 48.2086 18.5945C49.4027 17.1073 50.9606 16.1191 52.6772 15.4187C59.7112 12.5403 66.9226 12.3772 74.2272 14.0754C77.0819 14.7374 79.8153 15.7833 81.9982 17.8941C84.3492 20.168 84.3771 22.9889 81.8863 25.1093C80.403 26.3758 78.6305 27.2777 77.2778 28.1604L77.2684 28.1508ZM75.244 27.7574C77.1565 27.2009 78.6305 26.4142 79.694 24.9558C80.8881 23.3151 80.6828 21.5401 79.0223 20.4175C77.9401 19.6883 76.7647 19.0359 75.5519 18.5945C70.5422 16.7619 65.3833 16.6084 60.1777 17.3568C57.2484 17.7694 54.4124 18.5657 51.9215 20.312C50.149 21.5593 49.8878 23.3439 51.2125 25.0709C52.2853 26.4621 53.7313 27.2393 55.4852 27.7286C55.3453 27.5463 55.3079 27.46 55.2426 27.4024C53.2182 25.5027 53.3395 23.8716 55.6251 22.3076C55.8677 22.1445 56.1289 21.991 56.3901 21.8567C58.9649 20.5422 61.7263 20.1105 64.553 20.0241C68.0514 19.9282 71.4938 20.2736 74.647 21.9622C77.5203 23.507 77.7442 25.3492 75.2347 27.7478L75.244 27.7574ZM58.5265 24.9366C57.9014 25.2436 57.2297 26.0016 57.1178 26.6444C57.0431 27.105 57.8174 27.7958 58.3119 28.2659C58.6291 28.5634 59.1235 28.6977 59.5526 28.832C61.8569 29.5708 64.2265 29.7627 66.6147 29.6284C68.6391 29.5132 70.6822 29.3405 72.4827 28.2755C73.0611 27.9301 73.7514 27.1434 73.7234 26.5869C73.6954 26.0112 73.0237 25.2628 72.38 24.927C66.3535 21.7032 60.6815 23.8812 58.5265 24.9462V24.9366Z" fill="white"/>
<path d="M54.403 34.4449C59.9165 35.5099 70.8874 35.5291 76.4288 34.4257C75.981 35.5483 75.6172 36.5365 75.1787 37.4864C75.0761 37.7071 74.7309 37.8606 74.4697 37.947C70.365 39.2614 60.6535 39.2902 56.5487 37.9853C56.1289 37.851 55.7184 37.3905 55.4852 36.9779C55.0747 36.2295 54.8042 35.4044 54.403 34.4449Z" fill="white"/>
<path d="M57.6215 40.336C62.6312 41.6121 67.9861 41.6025 73.2103 40.3648C73.0144 42.8306 72.3707 43.7229 70.1224 44.2507C67.9581 44.7592 62.0808 44.7016 59.9444 43.934C58.8996 43.5598 58.1906 42.9938 58.0413 41.804C57.9854 41.3531 57.7894 40.9117 57.6215 40.336Z" fill="white"/>
<path d="M60.0378 45.498C63.9746 46.9468 66.4934 46.9468 70.7941 45.5747C70.4303 48.2804 70.5795 48.3092 68.1167 48.8561C66.8666 49.1343 63.6014 48.952 62.3047 48.7697C60.5882 48.5299 60.0284 47.2346 60.0471 45.5076L60.0378 45.498Z" fill="white"/>
</g>
<path d="M13.6097 75V63.8H14.9217L19.9457 72.264H19.2417L24.2017 63.8H25.5137L25.5297 75H23.9937L23.9777 66.216H24.3457L19.9297 73.64H19.1937L14.7457 66.216H15.1457V75H13.6097ZM55.9469 75.128C55.0936 75.128 54.2989 74.984 53.5629 74.696C52.8376 74.408 52.2083 74.008 51.6749 73.496C51.1416 72.9733 50.7256 72.3653 50.4269 71.672C50.1283 70.9787 49.9789 70.2213 49.9789 69.4C49.9789 68.5787 50.1283 67.8213 50.4269 67.128C50.7256 66.4347 51.1416 65.832 51.6749 65.32C52.2083 64.7973 52.8376 64.392 53.5629 64.104C54.2883 63.816 55.0829 63.672 55.9469 63.672C56.8003 63.672 57.5843 63.816 58.2989 64.104C59.0243 64.3813 59.6536 64.7813 60.1869 65.304C60.7309 65.816 61.1469 66.4187 61.4349 67.112C61.7336 67.8053 61.8829 68.568 61.8829 69.4C61.8829 70.232 61.7336 70.9947 61.4349 71.688C61.1469 72.3813 60.7309 72.9893 60.1869 73.512C59.6536 74.024 59.0243 74.424 58.2989 74.712C57.5843 74.9893 56.8003 75.128 55.9469 75.128ZM55.9469 73.704C56.5656 73.704 57.1363 73.5973 57.6589 73.384C58.1923 73.1707 58.6509 72.872 59.0349 72.488C59.4296 72.0933 59.7336 71.6347 59.9469 71.112C60.1709 70.5893 60.2829 70.0187 60.2829 69.4C60.2829 68.7813 60.1709 68.2107 59.9469 67.688C59.7336 67.1653 59.4296 66.712 59.0349 66.328C58.6509 65.9333 58.1923 65.6293 57.6589 65.416C57.1363 65.2027 56.5656 65.096 55.9469 65.096C55.3176 65.096 54.7363 65.2027 54.2029 65.416C53.6803 65.6293 53.2216 65.9333 52.8269 66.328C52.4323 66.712 52.1229 67.1653 51.8989 67.688C51.6856 68.2107 51.5789 68.7813 51.5789 69.4C51.5789 70.0187 51.6856 70.5893 51.8989 71.112C52.1229 71.6347 52.4323 72.0933 52.8269 72.488C53.2216 72.872 53.6803 73.1707 54.2029 73.384C54.7363 73.5973 55.3176 73.704 55.9469 73.704ZM54.7469 62.888L56.9229 60.808H58.8749L56.1869 62.888H54.7469ZM89.2167 75L84.2887 63.8H86.0167L90.5447 74.136H89.5527L94.1127 63.8H95.7127L90.8007 75H89.2167ZM120.597 68.632H126.357V69.992H120.597V68.632ZM120.741 73.608H127.269V75H119.141V63.8H127.045V65.192H120.741V73.608ZM151.86 75V63.8H153.46V75H151.86ZM182.077 75.128C181.223 75.128 180.407 75 179.629 74.744C178.85 74.4773 178.237 74.136 177.789 73.72L178.381 72.472C178.807 72.8453 179.351 73.1547 180.013 73.4C180.674 73.6453 181.362 73.768 182.077 73.768C182.727 73.768 183.255 73.6933 183.661 73.544C184.066 73.3947 184.365 73.192 184.557 72.936C184.749 72.6693 184.845 72.3707 184.845 72.04C184.845 71.656 184.717 71.3467 184.461 71.112C184.215 70.8773 183.89 70.6907 183.485 70.552C183.09 70.4027 182.653 70.2747 182.173 70.168C181.693 70.0613 181.207 69.9387 180.717 69.8C180.237 69.6507 179.794 69.464 179.389 69.24C178.994 69.016 178.674 68.7173 178.429 68.344C178.183 67.96 178.061 67.4693 178.061 66.872C178.061 66.296 178.21 65.768 178.509 65.288C178.818 64.7973 179.287 64.408 179.917 64.12C180.557 63.8213 181.367 63.672 182.349 63.672C182.999 63.672 183.645 63.7573 184.285 63.928C184.925 64.0987 185.479 64.344 185.949 64.664L185.421 65.944C184.941 65.624 184.434 65.3947 183.901 65.256C183.367 65.1067 182.85 65.032 182.349 65.032C181.719 65.032 181.202 65.112 180.797 65.272C180.391 65.432 180.093 65.6453 179.901 65.912C179.719 66.1787 179.629 66.4773 179.629 66.808C179.629 67.2027 179.751 67.5173 179.997 67.752C180.253 67.9867 180.578 68.1733 180.973 68.312C181.378 68.4507 181.821 68.5787 182.301 68.696C182.781 68.8027 183.261 68.9253 183.741 69.064C184.231 69.2027 184.674 69.384 185.069 69.608C185.474 69.832 185.799 70.1307 186.045 70.504C186.29 70.8773 186.413 71.3573 186.413 71.944C186.413 72.5093 186.258 73.0373 185.949 73.528C185.639 74.008 185.159 74.3973 184.509 74.696C183.869 74.984 183.058 75.128 182.077 75.128Z" fill="white"/>
<defs>
<clipPath id="clip0_40_225">
<rect width="187" height="49" fill="white" transform="translate(0.5)"/>
</clipPath>
</defs>
</svg>
